<svg width="229" height="41" viewBox="0 0 229 41" fill="none" xmlns="http://www.w3.org/2000/svg">
<path d="M94.373 33V14.332H97.2031V16.9512C97.7891 16.0371 98.5684 15.3047 99.541 14.7539C100.514 14.1914 101.621 13.9102 102.863 13.9102C104.246 13.9102 105.377 14.1973 106.256 14.7715C107.146 15.3457 107.773 16.1484 108.137 17.1797C109.613 15 111.535 13.9102 113.902 13.9102C115.754 13.9102 117.178 14.4258 118.174 15.457C119.17 16.4766 119.668 18.0527 119.668 20.1855V33H116.521V21.2402C116.521 19.9746 116.416 19.0664 116.205 18.5156C116.006 17.9531 115.637 17.502 115.098 17.1621C114.559 16.8223 113.926 16.6523 113.199 16.6523C111.887 16.6523 110.797 17.0918 109.93 17.9707C109.062 18.8379 108.629 20.2324 108.629 22.1543V33H105.465V20.8711C105.465 19.4648 105.207 18.4102 104.691 17.707C104.176 17.0039 103.332 16.6523 102.16 16.6523C101.27 16.6523 100.443 16.8867 99.6816 17.3555C98.9316 17.8242 98.3867 18.5098 98.0469 19.4121C97.707 20.3145 97.5371 21.6152 97.5371 23.3145V33H94.373ZM136.543 30.6973C135.371 31.6934 134.24 32.3965 133.15 32.8066C132.072 33.2168 130.912 33.4219 129.67 33.4219C127.619 33.4219 126.043 32.9238 124.941 31.9277C123.84 30.9199 123.289 29.6367 123.289 28.0781C123.289 27.1641 123.494 26.332 123.904 25.582C124.326 24.8203 124.871 24.2109 125.539 23.7539C126.219 23.2969 126.98 22.9512 127.824 22.7168C128.445 22.5527 129.383 22.3945 130.637 22.2422C133.191 21.9375 135.072 21.5742 136.279 21.1523C136.291 20.7188 136.297 20.4434 136.297 20.3262C136.297 19.0371 135.998 18.1289 135.4 17.6016C134.592 16.8867 133.391 16.5293 131.797 16.5293C130.309 16.5293 129.207 16.793 128.492 17.3203C127.789 17.8359 127.268 18.7559 126.928 20.0801L123.834 19.6582C124.115 18.334 124.578 17.2676 125.223 16.459C125.867 15.6387 126.799 15.0117 128.018 14.5781C129.236 14.1328 130.648 13.9102 132.254 13.9102C133.848 13.9102 135.143 14.0977 136.139 14.4727C137.135 14.8477 137.867 15.3223 138.336 15.8965C138.805 16.459 139.133 17.1738 139.32 18.041C139.426 18.5801 139.479 19.5527 139.479 20.959V25.1777C139.479 28.1191 139.543 29.9824 139.672 30.7676C139.812 31.541 140.082 32.2852 140.48 33H137.176C136.848 32.3438 136.637 31.5762 136.543 30.6973ZM136.279 23.6309C135.131 24.0996 133.408 24.498 131.111 24.8262C129.811 25.0137 128.891 25.2246 128.352 25.459C127.812 25.6934 127.396 26.0391 127.104 26.4961C126.811 26.9414 126.664 27.4395 126.664 27.9902C126.664 28.834 126.98 29.5371 127.613 30.0996C128.258 30.6621 129.195 30.9434 130.426 30.9434C131.645 30.9434 132.729 30.6797 133.678 30.1523C134.627 29.6133 135.324 28.8809 135.77 27.9551C136.109 27.2402 136.279 26.1855 136.279 24.791V23.6309ZM143.82 34.5469L146.896 35.0039C147.025 35.9531 147.383 36.6445 147.969 37.0781C148.754 37.6641 149.826 37.957 151.186 37.957C152.65 37.957 153.781 37.6641 154.578 37.0781C155.375 36.4922 155.914 35.6719 156.195 34.6172C156.359 33.9727 156.436 32.6191 156.424 30.5566C155.041 32.1855 153.318 33 151.256 33C148.689 33 146.703 32.0742 145.297 30.2227C143.891 28.3711 143.188 26.1504 143.188 23.5605C143.188 21.7793 143.51 20.1387 144.154 18.6387C144.799 17.127 145.73 15.9609 146.949 15.1406C148.18 14.3203 149.621 13.9102 151.273 13.9102C153.477 13.9102 155.293 14.8008 156.723 16.582V14.332H159.641V30.4688C159.641 33.375 159.342 35.4316 158.744 36.6387C158.158 37.8574 157.221 38.8184 155.932 39.5215C154.654 40.2246 153.078 40.5762 151.203 40.5762C148.977 40.5762 147.178 40.0723 145.807 39.0645C144.436 38.0684 143.773 36.5625 143.82 34.5469ZM146.439 23.332C146.439 25.7812 146.926 27.5684 147.898 28.6934C148.871 29.8184 150.09 30.3809 151.555 30.3809C153.008 30.3809 154.227 29.8242 155.211 28.7109C156.195 27.5859 156.688 25.8281 156.688 23.4375C156.688 21.1523 156.178 19.4297 155.158 18.2695C154.15 17.1094 152.932 16.5293 151.502 16.5293C150.096 16.5293 148.9 17.1035 147.916 18.252C146.932 19.3887 146.439 21.082 146.439 23.332ZM176.621 30.6973C175.449 31.6934 174.318 32.3965 173.229 32.8066C172.15 33.2168 170.99 33.4219 169.748 33.4219C167.697 33.4219 166.121 32.9238 165.02 31.9277C163.918 30.9199 163.367 29.6367 163.367 28.0781C163.367 27.1641 163.572 26.332 163.982 25.582C164.404 24.8203 164.949 24.2109 165.617 23.7539C166.297 23.2969 167.059 22.9512 167.902 22.7168C168.523 22.5527 169.461 22.3945 170.715 22.2422C173.27 21.9375 175.15 21.5742 176.357 21.1523C176.369 20.7188 176.375 20.4434 176.375 20.3262C176.375 19.0371 176.076 18.1289 175.479 17.6016C174.67 16.8867 173.469 16.5293 171.875 16.5293C170.387 16.5293 169.285 16.793 168.57 17.3203C167.867 17.8359 167.346 18.7559 167.006 20.0801L163.912 19.6582C164.193 18.334 164.656 17.2676 165.301 16.459C165.945 15.6387 166.877 15.0117 168.096 14.5781C169.314 14.1328 170.727 13.9102 172.332 13.9102C173.926 13.9102 175.221 14.0977 176.217 14.4727C177.213 14.8477 177.945 15.3223 178.414 15.8965C178.883 16.459 179.211 17.1738 179.398 18.041C179.504 18.5801 179.557 19.5527 179.557 20.959V25.1777C179.557 28.1191 179.621 29.9824 179.75 30.7676C179.891 31.541 180.16 32.2852 180.559 33H177.254C176.926 32.3438 176.715 31.5762 176.621 30.6973ZM176.357 23.6309C175.209 24.0996 173.486 24.498 171.189 24.8262C169.889 25.0137 168.969 25.2246 168.43 25.459C167.891 25.6934 167.475 26.0391 167.182 26.4961C166.889 26.9414 166.742 27.4395 166.742 27.9902C166.742 28.834 167.059 29.5371 167.691 30.0996C168.336 30.6621 169.273 30.9434 170.504 30.9434C171.723 30.9434 172.807 30.6797 173.756 30.1523C174.705 29.6133 175.402 28.8809 175.848 27.9551C176.188 27.2402 176.357 26.1855 176.357 24.791V23.6309ZM183.213 27.4277L186.342 26.9355C186.518 28.1895 187.004 29.1504 187.801 29.8184C188.609 30.4863 189.734 30.8203 191.176 30.8203C192.629 30.8203 193.707 30.5273 194.41 29.9414C195.113 29.3438 195.465 28.6465 195.465 27.8496C195.465 27.1348 195.154 26.5723 194.533 26.1621C194.1 25.8809 193.021 25.5234 191.299 25.0898C188.979 24.5039 187.367 24 186.465 23.5781C185.574 23.1445 184.895 22.5527 184.426 21.8027C183.969 21.041 183.74 20.2031 183.74 19.2891C183.74 18.457 183.928 17.6895 184.303 16.9863C184.689 16.2715 185.211 15.6797 185.867 15.2109C186.359 14.8477 187.027 14.543 187.871 14.2969C188.727 14.0391 189.641 13.9102 190.613 13.9102C192.078 13.9102 193.361 14.1211 194.463 14.543C195.576 14.9648 196.396 15.5391 196.924 16.2656C197.451 16.9805 197.814 17.9414 198.014 19.1484L194.92 19.5703C194.779 18.6094 194.369 17.8594 193.689 17.3203C193.021 16.7812 192.072 16.5117 190.842 16.5117C189.389 16.5117 188.352 16.752 187.73 17.2324C187.109 17.7129 186.799 18.2754 186.799 18.9199C186.799 19.3301 186.928 19.6992 187.186 20.0273C187.443 20.3672 187.848 20.6484 188.398 20.8711C188.715 20.9883 189.646 21.2578 191.193 21.6797C193.432 22.2773 194.99 22.7695 195.869 23.1562C196.76 23.5312 197.457 24.082 197.961 24.8086C198.465 25.5352 198.717 26.4375 198.717 27.5156C198.717 28.5703 198.406 29.5664 197.785 30.5039C197.176 31.4297 196.291 32.1504 195.131 32.666C193.971 33.1699 192.658 33.4219 191.193 33.4219C188.768 33.4219 186.916 32.918 185.639 31.9102C184.373 30.9023 183.564 29.4082 183.213 27.4277ZM202.496 10.8691V7.23047H205.66V10.8691H202.496ZM202.496 33V14.332H205.66V33H202.496ZM210.494 33V14.332H213.342V16.9863C214.713 14.9355 216.693 13.9102 219.283 13.9102C220.408 13.9102 221.439 14.1152 222.377 14.5254C223.326 14.9238 224.035 15.4512 224.504 16.1074C224.973 16.7637 225.301 17.543 225.488 18.4453C225.605 19.0312 225.664 20.0566 225.664 21.5215V33H222.5V21.6445C222.5 20.3555 222.377 19.3945 222.131 18.7617C221.885 18.1172 221.445 17.6074 220.812 17.2324C220.191 16.8457 219.459 16.6523 218.615 16.6523C217.268 16.6523 216.102 17.0801 215.117 17.9355C214.145 18.791 213.658 20.4141 213.658 22.8047V33H210.494Z" fill="#F43F5E"/>
<path d="M94.373 33H93.373C93.373 33.5523 93.8208 34 94.373 34V33ZM94.373 14.332V13.332C93.8208 13.332 93.373 13.7797 93.373 14.332H94.373ZM97.2031 14.332H98.2031C98.2031 13.7797 97.7554 13.332 97.2031 13.332V14.332ZM97.2031 16.9512H96.2031C96.2031 17.3952 96.4959 17.786 96.9219 17.9108C97.348 18.0357 97.8054 17.8646 98.045 17.4908L97.2031 16.9512ZM99.541 14.7539L100.034 15.6241L100.042 15.6196L99.541 14.7539ZM106.256 14.7715L105.709 15.6087L105.714 15.6119L106.256 14.7715ZM108.137 17.1797L107.194 17.5119C107.319 17.868 107.634 18.1231 108.009 18.1715C108.383 18.2198 108.753 18.0531 108.965 17.7405L108.137 17.1797ZM118.174 15.457L117.455 16.1518L117.459 16.1559L118.174 15.457ZM119.668 33V34C120.22 34 120.668 33.5523 120.668 33H119.668ZM116.521 33H115.521C115.521 33.5523 115.969 34 116.521 34V33ZM116.205 18.5156L115.262 18.8495C115.265 18.8574 115.268 18.8654 115.271 18.8733L116.205 18.5156ZM109.93 17.9707L110.637 18.6778L110.642 18.673L109.93 17.9707ZM108.629 33V34C109.181 34 109.629 33.5523 109.629 33H108.629ZM105.465 33H104.465C104.465 33.5523 104.913 34 105.465 34V33ZM99.6816 17.3555L99.1575 16.5038L99.1516 16.5075L99.6816 17.3555ZM97.5371 33V34C98.0894 34 98.5371 33.5523 98.5371 33H97.5371ZM95.373 33V14.332H93.373V33H95.373ZM94.373 15.332H97.2031V13.332H94.373V15.332ZM96.2031 14.332V16.9512H98.2031V14.332H96.2031ZM98.045 17.4908C98.5405 16.7178 99.1983 16.0972 100.034 15.6241L99.0483 13.8837C97.9384 14.5122 97.0376 15.3564 96.3612 16.4115L98.045 17.4908ZM100.042 15.6196C100.846 15.1541 101.778 14.9102 102.863 14.9102V12.9102C101.464 12.9102 100.181 13.2287 99.0404 13.8882L100.042 15.6196ZM102.863 14.9102C104.112 14.9102 105.037 15.1695 105.709 15.6087L106.803 13.9343C105.717 13.225 104.38 12.9102 102.863 12.9102V14.9102ZM105.714 15.6119C106.412 16.0619 106.901 16.6827 107.194 17.5119L109.08 16.8474C108.645 15.6141 107.881 14.6295 106.798 13.931L105.714 15.6119ZM108.965 17.7405C110.28 15.7994 111.908 14.9102 113.902 14.9102V12.9102C111.162 12.9102 108.947 14.2006 107.309 16.6188L108.965 17.7405ZM113.902 14.9102C115.566 14.9102 116.698 15.3682 117.455 16.1518L118.893 14.7623C117.658 13.4834 115.942 12.9102 113.902 12.9102V14.9102ZM117.459 16.1559C118.199 16.9137 118.668 18.1861 118.668 20.1855H120.668C120.668 17.9193 120.141 16.0394 118.889 14.7582L117.459 16.1559ZM118.668 20.1855V33H120.668V20.1855H118.668ZM119.668 32H116.521V34H119.668V32ZM117.521 33V21.2402H115.521V33H117.521ZM117.521 21.2402C117.521 19.9601 117.42 18.8926 117.139 18.158L115.271 18.8733C115.412 19.2403 115.521 19.9892 115.521 21.2402H117.521ZM117.148 18.1818C116.868 17.3925 116.346 16.7672 115.631 16.3162L114.564 18.008C114.927 18.2367 115.144 18.5137 115.262 18.8495L117.148 18.1818ZM115.631 16.3162C114.911 15.8621 114.087 15.6523 113.199 15.6523V17.6523C113.764 17.6523 114.206 17.7824 114.564 18.008L115.631 16.3162ZM113.199 15.6523C111.638 15.6523 110.286 16.1861 109.218 17.2684L110.642 18.673C111.308 17.9975 112.136 17.6523 113.199 17.6523V15.6523ZM109.223 17.2636C108.085 18.4011 107.629 20.1132 107.629 22.1543H109.629C109.629 20.3516 110.04 19.2747 110.637 18.6778L109.223 17.2636ZM107.629 22.1543V33H109.629V22.1543H107.629ZM108.629 32H105.465V34H108.629V32ZM106.465 33V20.8711H104.465V33H106.465ZM106.465 20.8711C106.465 19.3721 106.195 18.0668 105.498 17.1157L103.885 18.2984C104.219 18.7535 104.465 19.5576 104.465 20.8711H106.465ZM105.498 17.1157C104.733 16.0728 103.532 15.6523 102.16 15.6523V17.6523C103.132 17.6523 103.619 17.935 103.885 18.2984L105.498 17.1157ZM102.16 15.6523C101.084 15.6523 100.076 15.9385 99.1575 16.5038L100.206 18.2071C100.811 17.8349 101.455 17.6523 102.16 17.6523V15.6523ZM99.1516 16.5075C98.1987 17.1031 97.5208 17.9717 97.111 19.0597L98.9827 19.7646C99.2527 19.0478 99.6646 18.5454 100.212 18.2035L99.1516 16.5075ZM97.111 19.0597C96.7081 20.1295 96.5371 21.5722 96.5371 23.3145H98.5371C98.5371 21.6582 98.706 20.4994 98.9827 19.7646L97.111 19.0597ZM96.5371 23.3145V33H98.5371V23.3145H96.5371ZM97.5371 32H94.373V34H97.5371V32ZM136.543 30.6973L137.537 30.5912C137.498 30.2227 137.258 29.9061 136.914 29.7686C136.57 29.6311 136.178 29.6953 135.895 29.9353L136.543 30.6973ZM133.15 32.8066L132.798 31.8707L132.795 31.872L133.15 32.8066ZM124.941 31.9277L124.266 32.6656L124.271 32.6695L124.941 31.9277ZM123.904 25.582L123.029 25.0975L123.027 25.1022L123.904 25.582ZM125.539 23.7539L124.981 22.924L124.974 22.9286L125.539 23.7539ZM127.824 22.7168L127.569 21.7499L127.557 21.7533L127.824 22.7168ZM130.637 22.2422L130.518 21.2492L130.516 21.2495L130.637 22.2422ZM136.279 21.1523L136.609 22.0963C137.001 21.9594 137.268 21.5944 137.279 21.1794L136.279 21.1523ZM135.4 17.6016L134.738 18.3508L134.739 18.3514L135.4 17.6016ZM128.492 17.3203L129.084 18.1267L129.086 18.125L128.492 17.3203ZM126.928 20.0801L126.793 21.0709C127.296 21.1395 127.77 20.8204 127.896 20.3287L126.928 20.0801ZM123.834 19.6582L122.856 19.4504C122.798 19.7224 122.856 20.0061 123.016 20.2335C123.176 20.4609 123.423 20.6115 123.699 20.649L123.834 19.6582ZM125.223 16.459L126.005 17.0823L126.009 17.0768L125.223 16.459ZM128.018 14.5781L128.353 15.5203L128.361 15.5174L128.018 14.5781ZM138.336 15.8965L137.561 16.5289L137.568 16.5367L138.336 15.8965ZM139.32 18.041L140.302 17.849C140.3 17.8426 140.299 17.8361 140.298 17.8297L139.32 18.041ZM139.672 30.7676L138.685 30.9296C138.686 30.9352 138.687 30.9408 138.688 30.9465L139.672 30.7676ZM140.48 33V34C140.835 34 141.163 33.8122 141.343 33.5065C141.522 33.2008 141.527 32.8229 141.354 32.5131L140.48 33ZM137.176 33L136.281 33.4472C136.451 33.786 136.797 34 137.176 34V33ZM136.279 23.6309H137.279C137.279 23.2978 137.113 22.9866 136.837 22.8008C136.561 22.6151 136.21 22.5791 135.901 22.705L136.279 23.6309ZM131.111 24.8262L130.97 23.8362L130.969 23.8364L131.111 24.8262ZM127.104 26.4961L127.939 27.0457L127.945 27.0358L127.104 26.4961ZM127.613 30.0996L126.949 30.847L126.956 30.853L127.613 30.0996ZM133.678 30.1523L134.163 31.0265L134.172 31.0219L133.678 30.1523ZM135.77 27.9551L136.671 28.3886L136.673 28.3844L135.77 27.9551ZM135.895 29.9353C134.785 30.8794 133.752 31.5118 132.798 31.8707L133.503 33.7426C134.729 33.2812 135.958 32.5073 137.191 31.4592L135.895 29.9353ZM132.795 31.872C131.839 32.2357 130.8 32.4219 129.67 32.4219V34.4219C131.024 34.4219 132.306 34.1979 133.506 33.7413L132.795 31.872ZM129.67 32.4219C127.772 32.4219 126.47 31.9617 125.612 31.186L124.271 32.6695C125.616 33.886 127.466 34.4219 129.67 34.4219V32.4219ZM125.616 31.1899C124.732 30.3808 124.289 29.37 124.289 28.0781H122.289C122.289 29.9034 122.948 31.4591 124.266 32.6655L125.616 31.1899ZM124.289 28.0781C124.289 27.3198 124.458 26.6546 124.782 26.0618L123.027 25.1022C122.531 26.0095 122.289 27.0083 122.289 28.0781H124.289ZM124.779 26.0665C125.131 25.4304 125.574 24.9418 126.104 24.5792L124.974 22.9286C124.168 23.4801 123.521 24.2102 123.03 25.0975L124.779 26.0665ZM126.097 24.5837C126.682 24.1906 127.344 23.888 128.092 23.6803L127.557 21.7533C126.617 22.0144 125.756 22.4032 124.981 22.9241L126.097 24.5837ZM128.08 23.6836C128.632 23.5377 129.514 23.3859 130.757 23.2349L130.516 21.2495C129.251 21.4032 128.258 21.5678 127.569 21.75L128.08 23.6836ZM130.755 23.2352C133.325 22.9287 135.295 22.5557 136.609 22.0963L135.949 20.2083C134.849 20.5928 133.058 20.9463 130.518 21.2492L130.755 23.2352ZM137.279 21.1794C137.291 20.7501 137.297 20.4597 137.297 20.3262H135.297C135.297 20.427 135.291 20.6874 135.28 21.1253L137.279 21.1794ZM137.297 20.3262C137.297 18.9232 136.977 17.6593 136.062 16.8517L134.739 18.3514C135.019 18.5985 135.297 19.151 135.297 20.3262H137.297ZM136.063 16.8524C135.001 15.9139 133.521 15.5293 131.797 15.5293V17.5293C133.26 17.5293 134.182 17.8596 134.738 18.3508L136.063 16.8524ZM131.797 15.5293C130.226 15.5293 128.867 15.8011 127.899 16.5156L129.086 18.125C129.547 17.7848 130.391 17.5293 131.797 17.5293V15.5293ZM127.901 16.5139C126.931 17.225 126.326 18.4034 125.959 19.8315L127.896 20.3287C128.21 19.1083 128.647 18.4469 129.084 18.1267L127.901 16.5139ZM127.063 19.0892L123.969 18.6674L123.699 20.649L126.793 21.0709L127.063 19.0892ZM124.812 19.866C125.071 18.6484 125.482 17.7379 126.005 17.0823L124.441 15.8357C123.674 16.7973 123.16 18.0195 122.856 19.4504L124.812 19.866ZM126.009 17.0768C126.512 16.437 127.269 15.9057 128.353 15.5203L127.682 13.636C126.328 14.1177 125.223 14.8403 124.436 15.8412L126.009 17.0768ZM128.361 15.5174C129.447 15.1205 130.739 14.9102 132.254 14.9102V12.9102C130.558 12.9102 129.026 13.1451 127.674 13.6389L128.361 15.5174ZM132.254 14.9102C133.781 14.9102 134.944 15.0915 135.786 15.4085L136.491 13.5368C135.341 13.1038 133.914 12.9102 132.254 12.9102V14.9102ZM135.786 15.4085C136.685 15.7469 137.242 16.1382 137.561 16.5289L139.111 15.2641C138.492 14.5064 137.584 13.9484 136.491 13.5368L135.786 15.4085ZM137.568 16.5367C137.913 16.9516 138.182 17.5098 138.343 18.2523L140.298 17.8297C140.083 16.8378 139.696 15.9664 139.104 15.2563L137.568 16.5367ZM138.339 18.233C138.423 18.6653 138.479 19.5479 138.479 20.959H140.479C140.479 19.5576 140.428 18.4949 140.302 17.849L138.339 18.233ZM138.479 20.959V25.1777H140.479V20.959H138.479ZM138.479 25.1777C138.479 28.0929 138.54 30.0469 138.685 30.9296L140.659 30.6056C140.546 29.918 140.479 28.1454 140.479 25.1777H138.479ZM138.688 30.9465C138.849 31.8323 139.157 32.6801 139.607 33.4869L141.354 32.5131C141.007 31.8902 140.776 31.2497 140.656 30.5887L138.688 30.9465ZM140.48 32H137.176V34H140.48V32ZM138.07 32.5528C137.805 32.0227 137.621 31.375 137.537 30.5912L135.549 30.8033C135.653 31.7774 135.89 32.6648 136.281 33.4472L138.07 32.5528ZM135.901 22.705C134.868 23.1267 133.243 23.5115 130.97 23.8362L131.253 25.8161C133.573 25.4846 135.393 25.0725 136.657 24.5567L135.901 22.705ZM130.969 23.8364C129.661 24.0249 128.625 24.2498 127.953 24.5419L128.75 26.3761C129.156 26.1994 129.96 26.0024 131.254 25.8159L130.969 23.8364ZM127.953 24.5419C127.248 24.8485 126.671 25.3185 126.262 25.9564L127.945 27.0358C128.122 26.7596 128.377 26.5382 128.75 26.3761L127.953 24.5419ZM126.268 25.9465C125.864 26.5606 125.664 27.251 125.664 27.9902H127.664C127.664 27.6279 127.757 27.3222 127.939 27.0457L126.268 25.9465ZM125.664 27.9902C125.664 29.1208 126.103 30.0955 126.949 30.847L128.278 29.3522C127.857 28.9787 127.664 28.5472 127.664 27.9902H125.664ZM126.956 30.853C127.848 31.6318 129.058 31.9434 130.426 31.9434V29.9434C129.333 29.9434 128.667 29.6924 128.271 29.3462L126.956 30.853ZM130.426 31.9434C131.793 31.9434 133.048 31.6461 134.163 31.0265L133.192 29.2782C132.409 29.7133 131.496 29.9434 130.426 29.9434V31.9434ZM134.172 31.0219C135.286 30.389 136.131 29.5095 136.671 28.3886L134.868 27.5216C134.517 28.2522 133.968 28.8376 133.184 29.2828L134.172 31.0219ZM136.673 28.3844C137.108 27.4693 137.279 26.2375 137.279 24.791H135.279C135.279 26.1336 135.111 27.0111 134.866 27.5257L136.673 28.3844ZM137.279 24.791V23.6309H135.279V24.791H137.279ZM143.82 34.5469L143.967 33.5577C143.684 33.5156 143.395 33.5973 143.176 33.782C142.957 33.9668 142.827 34.2369 142.821 34.5236L143.82 34.5469ZM146.896 35.0039L147.887 34.8693C147.828 34.4285 147.484 34.0802 147.043 34.0148L146.896 35.0039ZM147.969 37.0781L148.567 36.2767L148.564 36.2743L147.969 37.0781ZM156.195 34.6172L157.162 34.8749L157.164 34.8639L156.195 34.6172ZM156.424 30.5566L157.424 30.551C157.421 30.1327 157.159 29.76 156.766 29.617C156.373 29.4739 155.932 29.5906 155.661 29.9095L156.424 30.5566ZM145.297 30.2227L146.093 29.6178L145.297 30.2227ZM144.154 18.6387L145.073 19.0335L145.074 19.0309L144.154 18.6387ZM146.949 15.1406L146.395 14.3086L146.391 14.311L146.949 15.1406ZM156.723 16.582L155.943 17.208C156.208 17.5389 156.654 17.6662 157.054 17.5254C157.455 17.3846 157.723 17.0064 157.723 16.582H156.723ZM156.723 14.332V13.332C156.17 13.332 155.723 13.7797 155.723 14.332H156.723ZM159.641 14.332H160.641C160.641 13.7797 160.193 13.332 159.641 13.332V14.332ZM158.744 36.6387L157.848 36.1949L157.843 36.2054L158.744 36.6387ZM155.932 39.5215L155.453 38.6436L155.449 38.6454L155.932 39.5215ZM145.807 39.0645L146.399 38.2587L146.394 38.2554L145.807 39.0645ZM155.211 28.7109L155.96 29.3734L155.964 29.3694L155.211 28.7109ZM155.158 18.2695L154.403 18.9253L154.407 18.9296L155.158 18.2695ZM147.916 18.252L148.672 18.9066L148.675 18.9027L147.916 18.252ZM143.673 35.536L146.75 35.993L147.043 34.0148L143.967 33.5577L143.673 35.536ZM145.906 35.1385C146.059 36.2675 146.509 37.242 147.374 37.882L148.564 36.2743C148.257 36.0471 147.992 35.6388 147.887 34.8693L145.906 35.1385ZM147.371 37.8796C148.384 38.636 149.692 38.957 151.186 38.957V36.957C149.96 36.957 149.124 36.6922 148.567 36.2767L147.371 37.8796ZM151.186 38.957C152.766 38.957 154.137 38.6436 155.171 37.8838L153.986 36.2725C153.425 36.6845 152.535 36.957 151.186 36.957V38.957ZM155.171 37.8838C156.17 37.1489 156.828 36.1252 157.162 34.8749L155.229 34.3595C155 35.2186 154.58 35.8355 153.986 36.2725L155.171 37.8838ZM157.164 34.8639C157.366 34.0734 157.435 32.5879 157.424 30.551L155.424 30.5623C155.436 32.6503 155.353 33.872 155.226 34.3705L157.164 34.8639ZM155.661 29.9095C154.461 31.3238 153.013 32 151.256 32V34C153.624 34 155.621 33.0473 157.186 31.2038L155.661 29.9095ZM151.256 32C148.965 32 147.289 31.1921 146.093 29.6178L144.501 30.8275C146.117 32.9563 148.414 34 151.256 34V32ZM146.093 29.6178C144.834 27.96 144.188 25.9582 144.188 23.5605H142.188C142.188 26.3426 142.947 28.7822 144.501 30.8275L146.093 29.6178ZM144.188 23.5605C144.188 21.9026 144.487 20.3978 145.073 19.0335L143.236 18.2439C142.533 19.8796 142.188 21.656 142.188 23.5605H144.188ZM145.074 19.0309C145.652 17.675 146.468 16.6702 147.508 15.9702L146.391 14.311C144.993 15.2517 143.945 16.5789 143.234 18.2465L145.074 19.0309ZM147.504 15.9727C148.551 15.2745 149.795 14.9102 151.273 14.9102V12.9102C149.448 12.9102 147.808 13.3661 146.395 14.3086L147.504 15.9727ZM151.273 14.9102C153.161 14.9102 154.695 15.6531 155.943 17.208L157.503 15.9561C155.891 13.9484 153.792 12.9102 151.273 12.9102V14.9102ZM157.723 16.582V14.332H155.723V16.582H157.723ZM156.723 15.332H159.641V13.332H156.723V15.332ZM158.641 14.332V30.4688H160.641V14.332H158.641ZM158.641 30.4688C158.641 33.3595 158.335 35.2116 157.848 36.1949L159.64 37.0824C160.349 35.6517 160.641 33.3905 160.641 30.4688H158.641ZM157.843 36.2054C157.356 37.219 156.575 38.0317 155.453 38.6436L156.41 40.3994C157.867 39.605 158.961 38.4959 159.645 37.072L157.843 36.2054ZM155.449 38.6454C154.356 39.2472 152.957 39.5762 151.203 39.5762V41.5762C153.2 41.5762 154.952 41.202 156.414 40.3975L155.449 38.6454ZM151.203 39.5762C149.124 39.5762 147.552 39.1064 146.399 38.2587L145.214 39.8702C146.803 41.0382 148.829 41.5762 151.203 41.5762V39.5762ZM146.394 38.2554C145.342 37.4907 144.779 36.3287 144.82 34.5701L142.821 34.5236C142.768 36.7963 143.529 38.646 145.219 39.8735L146.394 38.2554ZM145.439 23.332C145.439 25.8768 145.938 27.9551 147.142 29.3474L148.655 28.0393C147.913 27.1817 147.439 25.6857 147.439 23.332H145.439ZM147.142 29.3474C148.301 30.6882 149.794 31.3809 151.555 31.3809V29.3809C150.385 29.3809 149.441 28.9485 148.655 28.0393L147.142 29.3474ZM151.555 31.3809C153.302 31.3809 154.791 30.6957 155.96 29.3733L154.462 28.0485C153.662 28.9527 152.714 29.3809 151.555 29.3809V31.3809ZM155.964 29.3694C157.179 27.9803 157.688 25.9333 157.688 23.4375H155.688C155.688 25.723 155.212 27.1916 154.458 28.0524L155.964 29.3694ZM157.688 23.4375C157.688 21.023 157.151 19.0224 155.909 17.6094L154.407 18.9296C155.204 19.837 155.688 21.2817 155.688 23.4375H157.688ZM155.913 17.6137C154.731 16.2535 153.245 15.5293 151.502 15.5293V17.5293C152.618 17.5293 153.569 17.9653 154.403 18.9253L155.913 17.6137ZM151.502 15.5293C149.78 15.5293 148.315 16.2501 147.157 17.6012L148.675 18.9027C149.486 17.9569 150.412 17.5293 151.502 17.5293V15.5293ZM147.16 17.5973C145.956 18.9874 145.439 20.9572 145.439 23.332H147.439C147.439 21.2069 147.907 19.7899 148.672 18.9066L147.16 17.5973ZM176.621 30.6973L177.615 30.5912C177.576 30.2227 177.336 29.9061 176.992 29.7686C176.648 29.6311 176.256 29.6953 175.973 29.9353L176.621 30.6973ZM173.229 32.8066L172.876 31.8707L172.873 31.872L173.229 32.8066ZM165.02 31.9277L164.345 32.6656L164.349 32.6695L165.02 31.9277ZM163.982 25.582L163.108 25.0975L163.105 25.1022L163.982 25.582ZM165.617 23.7539L165.059 22.924L165.053 22.9286L165.617 23.7539ZM167.902 22.7168L167.647 21.7499L167.635 21.7533L167.902 22.7168ZM170.715 22.2422L170.596 21.2492L170.594 21.2495L170.715 22.2422ZM176.357 21.1523L176.687 22.0963C177.079 21.9594 177.346 21.5944 177.357 21.1794L176.357 21.1523ZM175.479 17.6016L174.816 18.3508L174.817 18.3514L175.479 17.6016ZM168.57 17.3203L169.162 18.1267L169.164 18.125L168.57 17.3203ZM167.006 20.0801L166.871 21.0709C167.374 21.1395 167.848 20.8204 167.974 20.3287L167.006 20.0801ZM163.912 19.6582L162.934 19.4504C162.876 19.7224 162.934 20.0061 163.094 20.2335C163.254 20.4609 163.502 20.6115 163.777 20.649L163.912 19.6582ZM165.301 16.459L166.083 17.0823L166.087 17.0768L165.301 16.459ZM168.096 14.5781L168.431 15.5203L168.439 15.5174L168.096 14.5781ZM178.414 15.8965L177.639 16.5289L177.646 16.5367L178.414 15.8965ZM179.398 18.041L180.38 17.849C180.379 17.8426 180.377 17.8361 180.376 17.8297L179.398 18.041ZM179.75 30.7676L178.763 30.9296C178.764 30.9352 178.765 30.9408 178.766 30.9465L179.75 30.7676ZM180.559 33V34C180.913 34 181.241 33.8122 181.421 33.5065C181.6 33.2008 181.605 32.8229 181.432 32.5131L180.559 33ZM177.254 33L176.359 33.4472C176.529 33.786 176.875 34 177.254 34V33ZM176.357 23.6309H177.357C177.357 23.2978 177.192 22.9866 176.915 22.8008C176.639 22.6151 176.288 22.5791 175.98 22.705L176.357 23.6309ZM171.189 24.8262L171.048 23.8362L171.047 23.8364L171.189 24.8262ZM167.182 26.4961L168.017 27.0457L168.024 27.0358L167.182 26.4961ZM167.691 30.0996L167.027 30.847L167.034 30.853L167.691 30.0996ZM173.756 30.1523L174.242 31.0265L174.25 31.0219L173.756 30.1523ZM175.848 27.9551L176.749 28.3886L176.751 28.3844L175.848 27.9551ZM175.973 29.9353C174.863 30.8794 173.83 31.5118 172.876 31.8707L173.581 33.7426C174.807 33.2812 176.036 32.5073 177.269 31.4592L175.973 29.9353ZM172.873 31.872C171.917 32.2357 170.878 32.4219 169.748 32.4219V34.4219C171.102 34.4219 172.384 34.1979 173.584 33.7413L172.873 31.872ZM169.748 32.4219C167.85 32.4219 166.548 31.9617 165.69 31.186L164.349 32.6695C165.694 33.886 167.544 34.4219 169.748 34.4219V32.4219ZM165.695 31.1899C164.81 30.3808 164.367 29.37 164.367 28.0781H162.367C162.367 29.9034 163.026 31.4591 164.345 32.6655L165.695 31.1899ZM164.367 28.0781C164.367 27.3198 164.536 26.6546 164.86 26.0618L163.105 25.1022C162.609 26.0095 162.367 27.0083 162.367 28.0781H164.367ZM164.857 26.0665C165.21 25.4304 165.652 24.9418 166.182 24.5792L165.053 22.9286C164.246 23.4801 163.599 24.2102 163.108 25.0975L164.857 26.0665ZM166.175 24.5837C166.76 24.1906 167.422 23.888 168.17 23.6803L167.635 21.7533C166.695 22.0144 165.834 22.4032 165.059 22.9241L166.175 24.5837ZM168.158 23.6836C168.71 23.5377 169.592 23.3859 170.835 23.2349L170.594 21.2495C169.329 21.4032 168.337 21.5678 167.647 21.75L168.158 23.6836ZM170.833 23.2352C173.403 22.9287 175.373 22.5557 176.687 22.0963L176.027 20.2083C174.928 20.5928 173.136 20.9463 170.596 21.2492L170.833 23.2352ZM177.357 21.1794C177.369 20.7501 177.375 20.4597 177.375 20.3262H175.375C175.375 20.427 175.37 20.6874 175.358 21.1253L177.357 21.1794ZM177.375 20.3262C177.375 18.9232 177.055 17.6593 176.14 16.8517L174.817 18.3514C175.097 18.5985 175.375 19.151 175.375 20.3262H177.375ZM176.141 16.8524C175.079 15.9139 173.599 15.5293 171.875 15.5293V17.5293C173.338 17.5293 174.261 17.8596 174.816 18.3508L176.141 16.8524ZM171.875 15.5293C170.304 15.5293 168.945 15.8011 167.977 16.5156L169.164 18.125C169.625 17.7848 170.47 17.5293 171.875 17.5293V15.5293ZM167.979 16.5139C167.009 17.225 166.404 18.4034 166.037 19.8315L167.974 20.3287C168.288 19.1083 168.725 18.4469 169.162 18.1267L167.979 16.5139ZM167.141 19.0892L164.047 18.6674L163.777 20.649L166.871 21.0709L167.141 19.0892ZM164.89 19.866C165.149 18.6484 165.56 17.7379 166.083 17.0823L164.519 15.8357C163.752 16.7973 163.238 18.0195 162.934 19.4504L164.89 19.866ZM166.087 17.0768C166.59 16.437 167.347 15.9057 168.431 15.5203L167.761 13.636C166.406 14.1177 165.301 14.8403 164.514 15.8412L166.087 17.0768ZM168.439 15.5174C169.525 15.1205 170.817 14.9102 172.332 14.9102V12.9102C170.636 12.9102 169.104 13.1451 167.753 13.6389L168.439 15.5174ZM172.332 14.9102C173.859 14.9102 175.022 15.0915 175.864 15.4085L176.569 13.5368C175.419 13.1038 173.992 12.9102 172.332 12.9102V14.9102ZM175.864 15.4085C176.763 15.7469 177.32 16.1382 177.639 16.5289L179.189 15.2641C178.57 14.5064 177.663 13.9484 176.569 13.5368L175.864 15.4085ZM177.646 16.5367C177.992 16.9516 178.26 17.5098 178.421 18.2523L180.376 17.8297C180.161 16.8378 179.774 15.9664 179.182 15.2563L177.646 16.5367ZM178.417 18.233C178.502 18.6653 178.557 19.5479 178.557 20.959H180.557C180.557 19.5576 180.506 18.4949 180.38 17.849L178.417 18.233ZM178.557 20.959V25.1777H180.557V20.959H178.557ZM178.557 25.1777C178.557 28.0929 178.618 30.0469 178.763 30.9296L180.737 30.6056C180.624 29.918 180.557 28.1454 180.557 25.1777H178.557ZM178.766 30.9465C178.927 31.8323 179.235 32.6801 179.685 33.4869L181.432 32.5131C181.085 31.8902 180.854 31.2497 180.734 30.5887L178.766 30.9465ZM180.559 32H177.254V34H180.559V32ZM178.148 32.5528C177.883 32.0227 177.699 31.375 177.615 30.5912L175.627 30.8033C175.731 31.7774 175.968 32.6648 176.359 33.4472L178.148 32.5528ZM175.98 22.705C174.946 23.1267 173.321 23.5115 171.048 23.8362L171.331 25.8161C173.652 25.4846 175.472 25.0725 176.735 24.5567L175.98 22.705ZM171.047 23.8364C169.739 24.0249 168.703 24.2498 168.031 24.5419L168.828 26.3761C169.235 26.1994 170.038 26.0024 171.332 25.8159L171.047 23.8364ZM168.031 24.5419C167.326 24.8485 166.749 25.3185 166.34 25.9564L168.024 27.0358C168.201 26.7596 168.455 26.5382 168.828 26.3761L168.031 24.5419ZM166.346 25.9465C165.942 26.5606 165.742 27.251 165.742 27.9902H167.742C167.742 27.6279 167.835 27.3222 168.017 27.0457L166.346 25.9465ZM165.742 27.9902C165.742 29.1208 166.182 30.0955 167.027 30.847L168.356 29.3522C167.936 28.9787 167.742 28.5472 167.742 27.9902H165.742ZM167.034 30.853C167.926 31.6318 169.136 31.9434 170.504 31.9434V29.9434C169.411 29.9434 168.746 29.6924 168.349 29.3462L167.034 30.853ZM170.504 31.9434C171.871 31.9434 173.126 31.6461 174.242 31.0265L173.27 29.2782C172.487 29.7133 171.574 29.9434 170.504 29.9434V31.9434ZM174.25 31.0219C175.364 30.389 176.21 29.5095 176.749 28.3886L174.946 27.5216C174.595 28.2522 174.046 28.8376 173.262 29.2828L174.25 31.0219ZM176.751 28.3844C177.186 27.4693 177.357 26.2375 177.357 24.791H175.357C175.357 26.1336 175.189 27.0111 174.945 27.5257L176.751 28.3844ZM177.357 24.791V23.6309H175.357V24.791H177.357ZM183.213 27.4277L183.057 26.4399C182.792 26.4816 182.555 26.6284 182.399 26.8471C182.243 27.0658 182.181 27.338 182.228 27.6025L183.213 27.4277ZM186.342 26.9355L187.332 26.7967C187.295 26.5312 187.153 26.2917 186.937 26.1321C186.722 25.9725 186.451 25.906 186.186 25.9477L186.342 26.9355ZM187.801 29.8184L187.158 30.5847L187.164 30.5893L187.801 29.8184ZM194.41 29.9414L195.05 30.7097L195.058 30.7033L194.41 29.9414ZM194.533 26.1621L195.084 25.3276L195.077 25.3231L194.533 26.1621ZM191.299 25.0898L191.054 26.0594L191.055 26.0596L191.299 25.0898ZM186.465 23.5781L186.027 24.4772C186.032 24.4795 186.037 24.4818 186.041 24.484L186.465 23.5781ZM184.426 21.8027L183.568 22.3172C183.571 22.3224 183.575 22.3276 183.578 22.3327L184.426 21.8027ZM184.303 16.9863L183.423 16.5105L183.42 16.5157L184.303 16.9863ZM185.867 15.2109L186.448 16.0247C186.453 16.0217 186.457 16.0186 186.461 16.0155L185.867 15.2109ZM187.871 14.2969L188.151 15.2569L188.16 15.2543L187.871 14.2969ZM194.463 14.543L194.105 15.4768L194.109 15.4781L194.463 14.543ZM196.924 16.2656L196.115 16.853L196.119 16.8593L196.924 16.2656ZM198.014 19.1484L198.149 20.1393C198.416 20.1028 198.658 19.9596 198.818 19.7423C198.979 19.525 199.044 19.2521 199 18.9856L198.014 19.1484ZM194.92 19.5703L193.93 19.7151C194.01 20.2578 194.512 20.6352 195.055 20.5611L194.92 19.5703ZM193.689 17.3203L193.061 18.0985L193.068 18.1038L193.689 17.3203ZM187.186 20.0273L187.982 19.423C187.979 19.4184 187.975 19.414 187.972 19.4095L187.186 20.0273ZM188.398 20.8711L188.024 21.7982C188.033 21.8019 188.042 21.8054 188.051 21.8088L188.398 20.8711ZM191.193 21.6797L190.93 22.6445L190.935 22.6458L191.193 21.6797ZM195.869 23.1562L195.466 24.0716C195.471 24.0737 195.476 24.0758 195.481 24.0779L195.869 23.1562ZM197.785 30.5039L196.952 29.9516L196.95 29.9541L197.785 30.5039ZM195.131 32.666L195.529 33.5833L195.537 33.5798L195.131 32.666ZM185.639 31.9102L185.016 32.6924L185.019 32.6952L185.639 31.9102ZM183.368 28.4156L186.497 27.9234L186.186 25.9477L183.057 26.4399L183.368 28.4156ZM185.351 27.0744C185.554 28.5173 186.133 29.7249 187.158 30.5847L188.443 29.052C187.875 28.5759 187.481 27.8616 187.332 26.7967L185.351 27.0744ZM187.164 30.5893C188.209 31.4524 189.588 31.8203 191.176 31.8203V29.8203C189.88 29.8203 189.01 29.5203 188.438 29.0474L187.164 30.5893ZM191.176 31.8203C192.733 31.8203 194.088 31.5113 195.05 30.7096L193.77 29.1732C193.326 29.5434 192.524 29.8203 191.176 29.8203V31.8203ZM195.058 30.7033C195.945 29.9491 196.465 28.9878 196.465 27.8496H194.465C194.465 28.3052 194.281 28.7384 193.763 29.1795L195.058 30.7033ZM196.465 27.8496C196.465 26.7826 195.972 25.9137 195.084 25.3276L193.982 26.9966C194.337 27.2308 194.465 27.4869 194.465 27.8496H196.465ZM195.077 25.3231C194.745 25.1076 194.261 24.9153 193.714 24.7339C193.143 24.5445 192.416 24.3399 191.543 24.1201L191.055 26.0596C191.904 26.2733 192.578 26.4643 193.085 26.6323C193.616 26.8083 193.888 26.9354 193.989 27.0011L195.077 25.3231ZM191.544 24.1203C189.223 23.5343 187.696 23.0496 186.888 22.6722L186.041 24.484C187.039 24.9504 188.734 25.4735 191.054 26.0594L191.544 24.1203ZM186.903 22.679C186.16 22.3174 185.631 21.8451 185.274 21.2727L183.578 22.3327C184.158 23.2604 184.989 23.9717 186.027 24.4772L186.903 22.679ZM185.283 21.2882C184.922 20.6866 184.74 20.0274 184.74 19.2891H182.74C182.74 20.3789 183.015 21.3954 183.568 22.3172L185.283 21.2882ZM184.74 19.2891C184.74 18.6137 184.891 18.0087 185.185 17.4569L183.42 16.5157C182.965 17.3702 182.74 18.3004 182.74 19.2891H184.74ZM185.182 17.4621C185.497 16.8801 185.917 16.4042 186.448 16.0247L185.286 14.3972C184.505 14.9551 183.882 15.6629 183.423 16.5105L185.182 17.4621ZM186.461 16.0155C186.827 15.7454 187.375 15.4832 188.151 15.2569L187.591 13.3369C186.68 13.6027 185.892 13.9499 185.273 14.4064L186.461 16.0155ZM188.16 15.2543C188.914 15.0271 189.73 14.9102 190.613 14.9102V12.9102C189.551 12.9102 188.539 13.051 187.583 13.3394L188.16 15.2543ZM190.613 14.9102C191.984 14.9102 193.142 15.1078 194.105 15.4768L194.821 13.6091C193.581 13.1344 192.172 12.9102 190.613 12.9102V14.9102ZM194.109 15.4781C195.098 15.853 195.734 16.3281 196.115 16.853L197.733 15.6782C197.059 14.7501 196.055 14.0767 194.817 13.6079L194.109 15.4781ZM196.119 16.8593C196.524 17.4082 196.844 18.2045 197.027 19.3113L199 18.9856C198.785 17.6783 198.378 16.5528 197.729 15.672L196.119 16.8593ZM197.879 18.1576L194.785 18.5795L195.055 20.5611L198.149 20.1393L197.879 18.1576ZM195.909 19.4255C195.737 18.2452 195.214 17.2535 194.311 16.5368L193.068 18.1038C193.524 18.4653 193.822 18.9736 193.93 19.7151L195.909 19.4255ZM194.317 16.5421C193.409 15.8087 192.204 15.5117 190.842 15.5117V17.5117C191.94 17.5117 192.634 17.7538 193.061 18.0985L194.317 16.5421ZM190.842 15.5117C189.331 15.5117 188.011 15.7511 187.119 16.4415L188.342 18.0234C188.692 17.7528 189.446 17.5117 190.842 17.5117V15.5117ZM187.119 16.4415C186.312 17.0653 185.799 17.8978 185.799 18.9199H187.799C187.799 18.653 187.907 18.3605 188.342 18.0234L187.119 16.4415ZM185.799 18.9199C185.799 19.5583 186.006 20.1442 186.399 20.6452L187.972 19.4095C187.85 19.2543 187.799 19.1018 187.799 18.9199H185.799ZM186.389 20.6317C186.79 21.1609 187.368 21.5333 188.024 21.7982L188.773 19.944C188.327 19.7636 188.096 19.5735 187.982 19.423L186.389 20.6317ZM188.051 21.8088C188.42 21.9453 189.404 22.2283 190.93 22.6445L191.456 20.7149C189.889 20.2874 189.01 20.0313 188.746 19.9333L188.051 21.8088ZM190.935 22.6458C193.174 23.2435 194.665 23.7191 195.466 24.0716L196.272 22.2409C195.315 21.82 193.689 21.3112 191.451 20.7135L190.935 22.6458ZM195.481 24.0779C196.214 24.3863 196.754 24.8224 197.139 25.3785L198.783 24.2387C198.161 23.3417 197.306 22.6762 196.257 22.2346L195.481 24.0779ZM197.139 25.3785C197.504 25.904 197.717 26.5959 197.717 27.5156H199.717C199.717 26.2791 199.426 25.1664 198.783 24.2387L197.139 25.3785ZM197.717 27.5156C197.717 28.3606 197.472 29.1665 196.952 29.9516L198.619 31.0562C199.341 29.9663 199.717 28.78 199.717 27.5156H197.717ZM196.95 29.9541C196.46 30.6977 195.736 31.3027 194.725 31.7522L195.537 33.5798C196.846 32.998 197.891 32.1617 198.62 31.0537L196.95 29.9541ZM194.732 31.7488C193.716 32.1901 192.543 32.4219 191.193 32.4219V34.4219C192.774 34.4219 194.225 34.1497 195.529 33.5832L194.732 31.7488ZM191.193 32.4219C188.887 32.4219 187.291 31.9399 186.258 31.1251L185.019 32.6952C186.541 33.896 188.649 34.4219 191.193 34.4219V32.4219ZM186.262 31.1279C185.23 30.3062 184.517 29.0542 184.197 27.253L182.228 27.6025C182.612 29.7622 183.516 31.4985 185.016 32.6924L186.262 31.1279ZM202.496 10.8691H201.496C201.496 11.4214 201.944 11.8691 202.496 11.8691V10.8691ZM202.496 7.23047V6.23047C201.944 6.23047 201.496 6.67818 201.496 7.23047H202.496ZM205.66 7.23047H206.66C206.66 6.67818 206.212 6.23047 205.66 6.23047V7.23047ZM205.66 10.8691V11.8691C206.212 11.8691 206.66 11.4214 206.66 10.8691H205.66ZM202.496 33H201.496C201.496 33.5523 201.944 34 202.496 34V33ZM202.496 14.332V13.332C201.944 13.332 201.496 13.7797 201.496 14.332H202.496ZM205.66 14.332H206.66C206.66 13.7797 206.212 13.332 205.66 13.332V14.332ZM205.66 33V34C206.212 34 206.66 33.5523 206.66 33H205.66ZM203.496 10.8691V7.23047H201.496V10.8691H203.496ZM202.496 8.23047H205.66V6.23047H202.496V8.23047ZM204.66 7.23047V10.8691H206.66V7.23047H204.66ZM205.66 9.86914H202.496V11.8691H205.66V9.86914ZM203.496 33V14.332H201.496V33H203.496ZM202.496 15.332H205.66V13.332H202.496V15.332ZM204.66 14.332V33H206.66V14.332H204.66ZM205.66 32H202.496V34H205.66V32ZM210.494 33H209.494C209.494 33.5523 209.942 34 210.494 34V33ZM210.494 14.332V13.332C209.942 13.332 209.494 13.7797 209.494 14.332H210.494ZM213.342 14.332H214.342C214.342 13.7797 213.894 13.332 213.342 13.332V14.332ZM213.342 16.9863H212.342C212.342 17.4268 212.63 17.8153 213.051 17.9432C213.473 18.0711 213.928 17.9083 214.173 17.5421L213.342 16.9863ZM222.377 14.5254L221.976 15.4415C221.981 15.4436 221.985 15.4455 221.99 15.4475L222.377 14.5254ZM225.488 18.4453L226.469 18.2492L226.467 18.2419L225.488 18.4453ZM225.664 33V34C226.216 34 226.664 33.5523 226.664 33H225.664ZM222.5 33H221.5C221.5 33.5523 221.948 34 222.5 34V33ZM222.131 18.7617L221.197 19.1184L221.199 19.1242L222.131 18.7617ZM220.812 17.2324L220.284 18.0813C220.29 18.0852 220.296 18.089 220.303 18.0927L220.812 17.2324ZM215.117 17.9355L214.461 17.1807L214.457 17.1847L215.117 17.9355ZM213.658 33V34C214.21 34 214.658 33.5523 214.658 33H213.658ZM211.494 33V14.332H209.494V33H211.494ZM210.494 15.332H213.342V13.332H210.494V15.332ZM212.342 14.332V16.9863H214.342V14.332H212.342ZM214.173 17.5421C215.348 15.785 217.007 14.9102 219.283 14.9102V12.9102C216.379 12.9102 214.078 14.0861 212.51 16.4305L214.173 17.5421ZM219.283 14.9102C220.284 14.9102 221.177 15.092 221.976 15.4415L222.778 13.6092C221.702 13.1385 220.532 12.9102 219.283 12.9102V14.9102ZM221.99 15.4475C222.815 15.7937 223.355 16.2199 223.69 16.6887L225.318 15.5262C224.715 14.6824 223.838 14.054 222.764 13.6033L221.99 15.4475ZM223.69 16.6887C224.067 17.2168 224.346 17.8631 224.509 18.6488L226.467 18.2419C226.256 17.2228 225.878 16.3106 225.318 15.5262L223.69 16.6887ZM224.508 18.6414C224.603 19.1196 224.664 20.055 224.664 21.5215H226.664C226.664 20.0582 226.608 18.9429 226.469 18.2492L224.508 18.6414ZM224.664 21.5215V33H226.664V21.5215H224.664ZM225.664 32H222.5V34H225.664V32ZM223.5 33V21.6445H221.5V33H223.5ZM223.5 21.6445C223.5 20.3224 223.378 19.2097 223.063 18.3993L221.199 19.1242C221.376 19.5794 221.5 20.3885 221.5 21.6445H223.5ZM223.065 18.405C222.733 17.535 222.136 16.8541 221.322 16.3721L220.303 18.0927C220.755 18.3608 221.037 18.6994 221.197 19.1184L223.065 18.405ZM221.341 16.3835C220.538 15.8837 219.617 15.6523 218.615 15.6523V17.6523C219.301 17.6523 219.845 17.8077 220.284 18.0813L221.341 16.3835ZM218.615 15.6523C217.035 15.6523 215.634 16.1615 214.461 17.1807L215.773 18.6903C216.569 17.9987 217.5 17.6523 218.615 17.6523V15.6523ZM214.457 17.1847C213.144 18.3397 212.658 20.3503 212.658 22.8047H214.658C214.658 20.4778 215.146 19.2424 215.778 18.6864L214.457 17.1847ZM212.658 22.8047V33H214.658V22.8047H212.658ZM213.658 32H210.494V34H213.658V32Z" fill="black"/>
<path d="M14.8359 22.8926V19.8691L25.752 19.8516V29.4141C24.0762 30.75 22.3477 31.7578 20.5664 32.4375C18.7852 33.1055 16.957 33.4395 15.082 33.4395C12.5508 33.4395 10.248 32.9004 8.17383 31.8223C6.11133 30.7324 4.55273 29.1621 3.49805 27.1113C2.44336 25.0605 1.91602 22.7695 1.91602 20.2383C1.91602 17.7305 2.4375 15.3926 3.48047 13.2246C4.53516 11.0449 6.04688 9.42773 8.01562 8.37305C9.98438 7.31836 12.252 6.79102 14.8184 6.79102C16.6816 6.79102 18.3633 7.0957 19.8633 7.70508C21.375 8.30273 22.5586 9.14063 23.4141 10.2188C24.2695 11.2969 24.9199 12.7031 25.3652 14.4375L22.2891 15.2812C21.9023 13.9687 21.4219 12.9375 20.8477 12.1875C20.2734 11.4375 19.4531 10.8398 18.3867 10.3945C17.3203 9.9375 16.1367 9.70898 14.8359 9.70898C13.2773 9.70898 11.9297 9.94922 10.793 10.4297C9.65625 10.8984 8.73633 11.5195 8.0332 12.293C7.3418 13.0664 6.80273 13.916 6.41602 14.8418C5.75977 16.4355 5.43164 18.1641 5.43164 20.0273C5.43164 22.3242 5.82422 24.2461 6.60938 25.793C7.40625 27.3398 8.56055 28.4883 10.0723 29.2383C11.584 29.9883 13.1895 30.3633 14.8887 30.3633C16.3652 30.3633 17.8066 30.082 19.2129 29.5195C20.6191 28.9453 21.6855 28.3359 22.4121 27.6914V22.8926H14.8359ZM30.3574 33V14.332H33.2051V17.1621C33.9316 15.8379 34.5996 14.9648 35.209 14.543C35.8301 14.1211 36.5098 13.9102 37.248 13.9102C38.3145 13.9102 39.3984 14.25 40.5 14.9297L39.4102 17.8652C38.6367 17.4082 37.8633 17.1797 37.0898 17.1797C36.3984 17.1797 35.7773 17.3906 35.2266 17.8125C34.6758 18.2227 34.2832 18.7969 34.0488 19.5352C33.6973 20.6602 33.5215 21.8906 33.5215 23.2266V33H30.3574ZM54.5625 30.6973C53.3906 31.6934 52.2598 32.3965 51.1699 32.8066C50.0918 33.2168 48.9316 33.4219 47.6895 33.4219C45.6387 33.4219 44.0625 32.9238 42.9609 31.9277C41.8594 30.9199 41.3086 29.6367 41.3086 28.0781C41.3086 27.1641 41.5137 26.332 41.9238 25.582C42.3457 24.8203 42.8906 24.2109 43.5586 23.7539C44.2383 23.2969 45 22.9512 45.8438 22.7168C46.4648 22.5527 47.4023 22.3945 48.6562 22.2422C51.2109 21.9375 53.0918 21.5742 54.2988 21.1523C54.3105 20.7188 54.3164 20.4434 54.3164 20.3262C54.3164 19.0371 54.0176 18.1289 53.4199 17.6016C52.6113 16.8867 51.4102 16.5293 49.8164 16.5293C48.3281 16.5293 47.2266 16.793 46.5117 17.3203C45.8086 17.8359 45.2871 18.7559 44.9473 20.0801L41.8535 19.6582C42.1348 18.334 42.5977 17.2676 43.2422 16.459C43.8867 15.6387 44.8184 15.0117 46.0371 14.5781C47.2559 14.1328 48.668 13.9102 50.2734 13.9102C51.8672 13.9102 53.1621 14.0977 54.1582 14.4727C55.1543 14.8477 55.8867 15.3223 56.3555 15.8965C56.8242 16.459 57.1523 17.1738 57.3398 18.041C57.4453 18.5801 57.498 19.5527 57.498 20.959V25.1777C57.498 28.1191 57.5625 29.9824 57.6914 30.7676C57.832 31.541 58.1016 32.2852 58.5 33H55.1953C54.8672 32.3438 54.6562 31.5762 54.5625 30.6973ZM54.2988 23.6309C53.1504 24.0996 51.4277 24.498 49.1309 24.8262C47.8301 25.0137 46.9102 25.2246 46.3711 25.459C45.832 25.6934 45.416 26.0391 45.123 26.4961C44.8301 26.9414 44.6836 27.4395 44.6836 27.9902C44.6836 28.834 45 29.5371 45.6328 30.0996C46.2773 30.6621 47.2148 30.9434 48.4453 30.9434C49.6641 30.9434 50.748 30.6797 51.6973 30.1523C52.6465 29.6133 53.3438 28.8809 53.7891 27.9551C54.1289 27.2402 54.2988 26.1855 54.2988 24.791V23.6309ZM62.4199 33V14.332H65.2676V16.9863C66.6387 14.9355 68.6191 13.9102 71.209 13.9102C72.334 13.9102 73.3652 14.1152 74.3027 14.5254C75.252 14.9238 75.9609 15.4512 76.4297 16.1074C76.8984 16.7637 77.2266 17.543 77.4141 18.4453C77.5312 19.0312 77.5898 20.0566 77.5898 21.5215V33H74.4258V21.6445C74.4258 20.3555 74.3027 19.3945 74.0566 18.7617C73.8105 18.1172 73.3711 17.6074 72.7383 17.2324C72.1172 16.8457 71.3848 16.6523 70.541 16.6523C69.1934 16.6523 68.0273 17.0801 67.043 17.9355C66.0703 18.791 65.584 20.4141 65.584 22.8047V33H62.4199ZM94.5703 33V30.6445C93.3867 32.4961 91.6465 33.4219 89.3496 33.4219C87.8613 33.4219 86.4902 33.0117 85.2363 32.1914C83.9941 31.3711 83.0273 30.2285 82.3359 28.7637C81.6562 27.2871 81.3164 25.5938 81.3164 23.6836C81.3164 21.8203 81.627 20.1328 82.248 18.6211C82.8691 17.0977 83.8008 15.9316 85.043 15.123C86.2852 14.3145 87.6738 13.9102 89.209 13.9102C90.334 13.9102 91.3359 14.1504 92.2148 14.6309C93.0938 15.0996 93.8086 15.7148 94.3594 16.4766V7.23047H97.5059V33H94.5703ZM84.5684 23.6836C84.5684 26.0742 85.0723 27.8613 86.0801 29.0449C87.0879 30.2285 88.2773 30.8203 89.6484 30.8203C91.0312 30.8203 92.2031 30.2578 93.1641 29.1328C94.1367 27.9961 94.623 26.2676 94.623 23.9473C94.623 21.3926 94.1309 19.5176 93.1465 18.3223C92.1621 17.127 90.9492 16.5293 89.5078 16.5293C88.1016 16.5293 86.9238 17.1035 85.9746 18.252C85.0371 19.4004 84.5684 21.2109 84.5684 23.6836Z" fill="#2563EB"/>
<path d="M14.8359 22.8926H13.8359C13.8359 23.4449 14.2837 23.8926 14.8359 23.8926V22.8926ZM14.8359 19.8691L14.8343 18.8691C14.2827 18.87 13.8359 19.3175 13.8359 19.8691H14.8359ZM25.752 19.8516H26.752C26.752 19.5861 26.6464 19.3315 26.4585 19.1439C26.2706 18.9563 26.0158 18.8511 25.7503 18.8516L25.752 19.8516ZM25.752 29.4141L26.3753 30.196C26.6133 30.0063 26.752 29.7184 26.752 29.4141H25.752ZM20.5664 32.4375L20.9175 33.3738L20.9229 33.3718L20.5664 32.4375ZM8.17383 31.8223L7.70662 32.7064L7.71263 32.7096L8.17383 31.8223ZM3.48047 13.2246L2.58031 12.789L2.57933 12.7911L3.48047 13.2246ZM19.8633 7.70508L19.4869 8.63159L19.4956 8.63504L19.8633 7.70508ZM25.3652 14.4375L25.6298 15.4019C26.1562 15.2575 26.4696 14.7176 26.3338 14.1888L25.3652 14.4375ZM22.2891 15.2812L21.3298 15.5639C21.4839 16.0866 22.028 16.3898 22.5536 16.2456L22.2891 15.2812ZM18.3867 10.3945L17.9928 11.3137L18.0014 11.3173L18.3867 10.3945ZM10.793 10.4297L11.1742 11.3542L11.1823 11.3508L10.793 10.4297ZM8.0332 12.293L7.29324 11.6203L7.28767 11.6265L8.0332 12.293ZM6.41602 14.8418L5.49327 14.4563L5.49134 14.461L6.41602 14.8418ZM6.60938 25.793L5.71765 26.2456L5.7204 26.2509L6.60938 25.793ZM19.2129 29.5195L19.5843 30.448L19.5909 30.4453L19.2129 29.5195ZM22.4121 27.6914L23.0757 28.4395C23.2897 28.2497 23.4121 27.9774 23.4121 27.6914H22.4121ZM22.4121 22.8926H23.4121C23.4121 22.3403 22.9644 21.8926 22.4121 21.8926V22.8926ZM15.8359 22.8926V19.8691H13.8359V22.8926H15.8359ZM14.8375 20.8691L25.7536 20.8516L25.7503 18.8516L14.8343 18.8691L14.8375 20.8691ZM24.752 19.8516V29.4141H26.752V19.8516H24.752ZM25.1286 28.6321C23.5235 29.9117 21.8838 30.8645 20.2099 31.5032L20.9229 33.3718C22.8115 32.6511 24.6288 31.5883 26.3753 30.196L25.1286 28.6321ZM20.2153 31.5012C18.5446 32.1277 16.8353 32.4395 15.082 32.4395V34.4395C17.0787 34.4395 19.0257 34.0833 20.9175 33.3738L20.2153 31.5012ZM15.082 32.4395C12.6977 32.4395 10.5552 31.933 8.63502 30.935L7.71263 32.7096C9.9409 33.8678 12.4038 34.4395 15.082 34.4395V32.4395ZM8.64102 30.9381C6.75737 29.9428 5.3472 28.5204 4.38733 26.654L2.60876 27.5687C3.75827 29.8038 5.46529 31.5221 7.70663 32.7064L8.64102 30.9381ZM4.38733 26.654C3.41231 24.7581 2.91602 22.6263 2.91602 20.2383H0.916016C0.916016 22.9128 1.47441 25.363 2.60876 27.5687L4.38733 26.654ZM2.91602 20.2383C2.91602 17.874 3.40649 15.6851 4.38161 13.6581L2.57933 12.7911C1.46851 15.1001 0.916016 17.5869 0.916016 20.2383H2.91602ZM4.38063 13.6602C5.35151 11.6537 6.72114 10.201 8.48785 9.25453L7.5434 7.49157C5.37261 8.65449 3.71881 10.4362 2.58031 12.789L4.38063 13.6602ZM8.48785 9.25453C10.291 8.28855 12.392 7.79102 14.8184 7.79102V5.79102C12.1119 5.79102 9.67775 6.34816 7.5434 7.49157L8.48785 9.25453ZM14.8184 7.79102C16.5719 7.79102 18.1231 8.07749 19.4869 8.63154L20.2397 6.77861C18.6035 6.11391 16.7914 5.79102 14.8184 5.79102V7.79102ZM19.4956 8.63504C20.8739 9.17992 21.9026 9.92275 22.6307 10.8403L24.1974 9.59718C23.2146 8.3585 21.8761 7.42555 20.2309 6.77512L19.4956 8.63504ZM22.6307 10.8403C23.3769 11.7807 23.9762 13.0486 24.3967 14.6862L26.3338 14.1888C25.8637 12.3577 25.1622 10.813 24.1974 9.59718L22.6307 10.8403ZM25.1007 13.4731L22.0245 14.3169L22.5536 16.2456L25.6298 15.4019L25.1007 13.4731ZM23.2483 14.9986C22.8411 13.6167 22.3159 12.4602 21.6417 11.5796L20.0537 12.7954C20.5279 13.4148 20.9636 14.3208 21.3298 15.5639L23.2483 14.9986ZM21.6417 11.5796C20.9397 10.6628 19.964 9.96949 18.7721 9.47175L18.0014 11.3173C18.9422 11.7102 19.6071 12.2122 20.0537 12.7954L21.6417 11.5796ZM18.7806 9.47539C17.5755 8.9589 16.2557 8.70898 14.8359 8.70898V10.709C16.0177 10.709 17.0651 10.9161 17.9928 11.3137L18.7806 9.47539ZM14.8359 8.70898C13.1775 8.70898 11.6913 8.9643 10.4036 9.50859L11.1823 11.3508C12.168 10.9341 13.3772 10.709 14.8359 10.709V8.70898ZM10.4117 9.50521C9.16222 10.0205 8.11191 10.7198 7.29326 11.6203L8.77314 12.9656C9.36074 12.3193 10.1503 11.7764 11.1742 11.3542L10.4117 9.50521ZM7.28767 11.6265C6.5245 12.4802 5.92444 13.4242 5.49328 14.4564L7.33875 15.2272C7.68103 14.4078 8.1591 13.6526 8.77874 12.9594L7.28767 11.6265ZM5.49134 14.461C4.78145 16.1851 4.43164 18.0441 4.43164 20.0273H6.43164C6.43164 18.284 6.73809 16.686 7.34069 15.2225L5.49134 14.461ZM4.43164 20.0273C4.43164 22.4326 4.84207 24.5205 5.71767 26.2456L7.50108 25.3404C6.80636 23.9717 6.43164 22.2158 6.43164 20.0273H4.43164ZM5.7204 26.2509C6.6117 27.9811 7.91875 29.2862 9.62783 30.1341L10.5167 28.3425C9.20235 27.6904 8.2008 26.6986 7.49835 25.335L5.7204 26.2509ZM9.62783 30.1341C11.2787 30.9531 13.0364 31.3633 14.8887 31.3633V29.3633C13.3425 29.3633 11.8893 29.0234 10.5167 28.3425L9.62783 30.1341ZM14.8887 31.3633C16.4958 31.3633 18.063 31.0565 19.5843 30.448L18.8415 28.5911C17.5503 29.1075 16.2347 29.3633 14.8887 29.3633V31.3633ZM19.5909 30.4453C21.0496 29.8497 22.2309 29.1889 23.0757 28.4395L21.7485 26.9433C21.1402 27.483 20.1887 28.0409 18.8349 28.5937L19.5909 30.4453ZM23.4121 27.6914V22.8926H21.4121V27.6914H23.4121ZM22.4121 21.8926H14.8359V23.8926H22.4121V21.8926ZM30.3574 33H29.3574C29.3574 33.5523 29.8051 34 30.3574 34V33ZM30.3574 14.332V13.332C29.8051 13.332 29.3574 13.7797 29.3574 14.332H30.3574ZM33.2051 14.332H34.2051C34.2051 13.7797 33.7574 13.332 33.2051 13.332V14.332ZM33.2051 17.1621H32.2051C32.2051 17.6188 32.5144 18.0174 32.9568 18.1308C33.3991 18.2442 33.8621 18.0435 34.0818 17.6431L33.2051 17.1621ZM35.209 14.543L34.6471 13.7157L34.6398 13.7208L35.209 14.543ZM40.5 14.9297L41.4375 15.2777C41.6034 14.8308 41.4308 14.329 41.0251 14.0787L40.5 14.9297ZM39.4102 17.8652L38.9014 18.7262C39.1565 18.8769 39.4652 18.9067 39.7444 18.8077C40.0236 18.7087 40.2445 18.491 40.3476 18.2133L39.4102 17.8652ZM35.2266 17.8125L35.8239 18.6146L35.8346 18.6064L35.2266 17.8125ZM34.0488 19.5352L33.0957 19.2326L33.0943 19.2369L34.0488 19.5352ZM33.5215 33V34C34.0738 34 34.5215 33.5523 34.5215 33H33.5215ZM31.3574 33V14.332H29.3574V33H31.3574ZM30.3574 15.332H33.2051V13.332H30.3574V15.332ZM32.2051 14.332V17.1621H34.2051V14.332H32.2051ZM34.0818 17.6431C34.7957 16.342 35.3715 15.6467 35.7782 15.3652L34.6398 13.7208C33.8277 14.2829 33.0676 15.3338 32.3284 16.6811L34.0818 17.6431ZM35.7709 15.3702C36.2292 15.0589 36.7137 14.9102 37.248 14.9102V12.9102C36.3058 12.9102 35.4309 13.1833 34.6471 13.7158L35.7709 15.3702ZM37.248 14.9102C38.0929 14.9102 38.9973 15.1775 39.9749 15.7807L41.0251 14.0787C39.7996 13.3225 38.536 12.9102 37.248 12.9102V14.9102ZM39.5625 14.5816L38.4727 17.5172L40.3476 18.2133L41.4375 15.2777L39.5625 14.5816ZM39.9189 17.0043C39.0166 16.4711 38.0694 16.1797 37.0898 16.1797V18.1797C37.6571 18.1797 38.2569 18.3453 38.9014 18.7262L39.9189 17.0043ZM37.0898 16.1797C36.1778 16.1797 35.3431 16.4636 34.6185 17.0186L35.8346 18.6064C36.2115 18.3177 36.6191 18.1797 37.0898 18.1797V16.1797ZM34.6293 17.0105C33.8894 17.5614 33.385 18.3213 33.0957 19.2326L35.002 19.8377C35.1814 19.2725 35.4622 18.8839 35.8238 18.6145L34.6293 17.0105ZM33.0943 19.2369C32.7089 20.4703 32.5215 21.8027 32.5215 23.2266H34.5215C34.5215 21.9785 34.6856 20.85 35.0033 19.8334L33.0943 19.2369ZM32.5215 23.2266V33H34.5215V23.2266H32.5215ZM33.5215 32H30.3574V34H33.5215V32ZM54.5625 30.6973L55.5569 30.5912C55.5175 30.2227 55.2776 29.9061 54.9334 29.7686C54.5892 29.6311 54.1972 29.6953 53.9149 29.9353L54.5625 30.6973ZM51.1699 32.8066L50.8177 31.8707L50.8143 31.872L51.1699 32.8066ZM42.9609 31.9277L42.2859 32.6656L42.2902 32.6695L42.9609 31.9277ZM41.9238 25.582L41.049 25.0975L41.0465 25.1022L41.9238 25.582ZM43.5586 23.7539L43.0006 22.924L42.9939 22.9286L43.5586 23.7539ZM45.8438 22.7168L45.5883 21.7499L45.5761 21.7533L45.8438 22.7168ZM48.6562 22.2422L48.5378 21.2492L48.5356 21.2495L48.6562 22.2422ZM54.2988 21.1523L54.6288 22.0963C55.0207 21.9594 55.2872 21.5944 55.2985 21.1794L54.2988 21.1523ZM53.4199 17.6016L52.7576 18.3508L52.7583 18.3514L53.4199 17.6016ZM46.5117 17.3203L47.1031 18.1267L47.1054 18.125L46.5117 17.3203ZM44.9473 20.0801L44.8122 21.0709C45.3151 21.1395 45.7897 20.8204 45.9159 20.3287L44.9473 20.0801ZM41.8535 19.6582L40.8753 19.4504C40.8176 19.7224 40.8756 20.0061 41.0356 20.2335C41.1955 20.4609 41.4429 20.6115 41.7184 20.649L41.8535 19.6582ZM43.2422 16.459L44.0242 17.0823L44.0285 17.0768L43.2422 16.459ZM46.0371 14.5781L46.3723 15.5203L46.3803 15.5174L46.0371 14.5781ZM56.3555 15.8965L55.5808 16.5289L55.5872 16.5367L56.3555 15.8965ZM57.3398 18.041L58.3212 17.849C58.32 17.8426 58.3186 17.8361 58.3173 17.8297L57.3398 18.041ZM57.6914 30.7676L56.7046 30.9296C56.7055 30.9352 56.7065 30.9408 56.7075 30.9465L57.6914 30.7676ZM58.5 33V34C58.8546 34 59.1826 33.8122 59.3622 33.5065C59.5418 33.2008 59.5461 32.8229 59.3735 32.5131L58.5 33ZM55.1953 33L54.3009 33.4472C54.4703 33.786 54.8165 34 55.1953 34V33ZM54.2988 23.6309H55.2988C55.2988 23.2978 55.133 22.9866 54.8565 22.8008C54.5801 22.6151 54.2293 22.5791 53.9209 22.705L54.2988 23.6309ZM49.1309 24.8262L48.9894 23.8362L48.9882 23.8364L49.1309 24.8262ZM45.123 26.4961L45.9585 27.0457L45.9649 27.0358L45.123 26.4961ZM45.6328 30.0996L44.9684 30.847L44.9753 30.853L45.6328 30.0996ZM51.6973 30.1523L52.1829 31.0265L52.1911 31.0219L51.6973 30.1523ZM53.7891 27.9551L54.6902 28.3886L54.6922 28.3844L53.7891 27.9551ZM53.9149 29.9353C52.8042 30.8794 51.7714 31.5118 50.8177 31.8707L51.5221 33.7426C52.7481 33.2812 53.9771 32.5073 55.2101 31.4592L53.9149 29.9353ZM50.8143 31.872C49.8583 32.2357 48.8195 32.4219 47.6895 32.4219V34.4219C49.0438 34.4219 50.3253 34.1979 51.5255 33.7413L50.8143 31.872ZM47.6895 32.4219C45.7917 32.4219 44.4894 31.9617 43.6316 31.186L42.2902 32.6695C43.6356 33.886 45.4857 34.4219 47.6895 34.4219V32.4219ZM43.636 31.1899C42.7515 30.3808 42.3086 29.37 42.3086 28.0781H40.3086C40.3086 29.9034 40.9672 31.4591 42.2859 32.6655L43.636 31.1899ZM42.3086 28.0781C42.3086 27.3198 42.4771 26.6546 42.8012 26.0618L41.0465 25.1022C40.5503 26.0095 40.3086 27.0083 40.3086 28.0781H42.3086ZM42.7986 26.0665C43.1509 25.4304 43.5934 24.9418 44.1233 24.5792L42.9939 22.9286C42.1878 23.4801 41.5405 24.2102 41.049 25.0975L42.7986 26.0665ZM44.1166 24.5837C44.7013 24.1906 45.3638 23.888 46.1114 23.6803L45.5761 21.7533C44.6362 22.0144 43.7752 22.4032 43.0006 22.9241L44.1166 24.5837ZM46.0991 23.6836C46.6517 23.5377 47.5339 23.3859 48.7769 23.2349L48.5356 21.2495C47.2708 21.4032 46.278 21.5678 45.5884 21.75L46.0991 23.6836ZM48.7747 23.2352C51.3444 22.9287 53.3146 22.5557 54.6288 22.0963L53.9689 20.2083C52.869 20.5928 51.0775 20.9463 48.5378 21.2492L48.7747 23.2352ZM55.2985 21.1794C55.3101 20.7501 55.3164 20.4597 55.3164 20.3262H53.3164C53.3164 20.427 53.311 20.6874 53.2992 21.1253L55.2985 21.1794ZM55.3164 20.3262C55.3164 18.9232 54.9968 17.6593 54.0815 16.8517L52.7583 18.3514C53.0384 18.5985 53.3164 19.151 53.3164 20.3262H55.3164ZM54.0823 16.8524C53.0207 15.9139 51.5405 15.5293 49.8164 15.5293V17.5293C51.2798 17.5293 52.202 17.8596 52.7576 18.3508L54.0823 16.8524ZM49.8164 15.5293C48.2453 15.5293 46.8866 15.8011 45.9181 16.5156L47.1054 18.125C47.5666 17.7848 48.411 17.5293 49.8164 17.5293V15.5293ZM45.9204 16.5139C44.9507 17.225 44.3452 18.4034 43.9787 19.8315L45.9159 20.3287C46.2291 19.1083 46.6665 18.4469 47.1031 18.1267L45.9204 16.5139ZM45.0824 19.0892L41.9886 18.6674L41.7184 20.649L44.8122 21.0709L45.0824 19.0892ZM42.8317 19.866C43.0903 18.6484 43.5016 17.7379 44.0242 17.0823L42.4602 15.8357C41.6937 16.7973 41.1792 18.0195 40.8753 19.4504L42.8317 19.866ZM44.0285 17.0768C44.5312 16.437 45.2889 15.9057 46.3723 15.5203L45.7019 13.636C44.3478 14.1177 43.2423 14.8403 42.4559 15.8412L44.0285 17.0768ZM46.3803 15.5174C47.4665 15.1205 48.7583 14.9102 50.2734 14.9102V12.9102C48.5777 12.9102 47.0452 13.1451 45.6939 13.6389L46.3803 15.5174ZM50.2734 14.9102C51.8008 14.9102 52.9638 15.0915 53.8059 15.4085L54.5105 13.5368C53.3604 13.1038 51.9336 12.9102 50.2734 12.9102V14.9102ZM53.8059 15.4085C54.7046 15.7469 55.2619 16.1382 55.5808 16.5289L57.1301 15.2641C56.5116 14.5064 55.6039 13.9484 54.5105 13.5368L53.8059 15.4085ZM55.5872 16.5367C55.933 16.9516 56.2019 17.5098 56.3624 18.2523L58.3173 17.8297C58.1028 16.8378 57.7154 15.9664 57.1237 15.2563L55.5872 16.5367ZM56.3585 18.233C56.443 18.6653 56.498 19.5479 56.498 20.959H58.498C58.498 19.5576 58.4476 18.4949 58.3212 17.849L56.3585 18.233ZM56.498 20.959V25.1777H58.498V20.959H56.498ZM56.498 25.1777C56.498 28.0929 56.5597 30.0469 56.7046 30.9296L58.6782 30.6056C58.5653 29.918 58.498 28.1454 58.498 25.1777H56.498ZM56.7075 30.9465C56.8686 31.8323 57.1768 32.6801 57.6265 33.4869L59.3735 32.5131C59.0263 31.8902 58.7955 31.2497 58.6753 30.5887L56.7075 30.9465ZM58.5 32H55.1953V34H58.5V32ZM56.0897 32.5528C55.8247 32.0227 55.6405 31.375 55.5569 30.5912L53.5681 30.8033C53.672 31.7774 53.9097 32.6648 54.3009 33.4472L56.0897 32.5528ZM53.9209 22.705C52.8879 23.1267 51.2624 23.5115 48.9894 23.8362L49.2723 25.8161C51.593 25.4846 53.4129 25.0725 54.6767 24.5567L53.9209 22.705ZM48.9882 23.8364C47.6804 24.0249 46.6443 24.2498 45.9724 24.5419L46.7698 26.3761C47.176 26.1994 47.9797 26.0024 49.2735 25.8159L48.9882 23.8364ZM45.9724 24.5419C45.2672 24.8485 44.6901 25.3185 44.2812 25.9564L45.9649 27.0358C46.142 26.7596 46.3969 26.5382 46.7698 26.3761L45.9724 24.5419ZM44.2876 25.9465C43.8836 26.5606 43.6836 27.251 43.6836 27.9902H45.6836C45.6836 27.6279 45.7766 27.3222 45.9585 27.0457L44.2876 25.9465ZM43.6836 27.9902C43.6836 29.1208 44.123 30.0955 44.9684 30.847L46.2972 29.3522C45.877 28.9787 45.6836 28.5472 45.6836 27.9902H43.6836ZM44.9753 30.853C45.8677 31.6318 47.0774 31.9434 48.4453 31.9434V29.9434C47.3522 29.9434 46.687 29.6924 46.2903 29.3462L44.9753 30.853ZM48.4453 31.9434C49.8128 31.9434 51.0677 31.6461 52.1829 31.0265L51.2116 29.2782C50.4284 29.7133 49.5153 29.9434 48.4453 29.9434V31.9434ZM52.1911 31.0219C53.3056 30.389 54.151 29.5095 54.6902 28.3886L52.8879 27.5216C52.5365 28.2522 51.9874 28.8376 51.2034 29.2828L52.1911 31.0219ZM54.6922 28.3844C55.1272 27.4693 55.2988 26.2375 55.2988 24.791H53.2988C53.2988 26.1336 53.1306 27.0111 52.8859 27.5257L54.6922 28.3844ZM55.2988 24.791V23.6309H53.2988V24.791H55.2988ZM62.4199 33H61.4199C61.4199 33.5523 61.8676 34 62.4199 34V33ZM62.4199 14.332V13.332C61.8676 13.332 61.4199 13.7797 61.4199 14.332H62.4199ZM65.2676 14.332H66.2676C66.2676 13.7797 65.8199 13.332 65.2676 13.332V14.332ZM65.2676 16.9863H64.2676C64.2676 17.4268 64.5557 17.8153 64.9772 17.9432C65.3986 18.0711 65.8541 17.9083 66.0989 17.5421L65.2676 16.9863ZM74.3027 14.5254L73.9019 15.4415C73.9065 15.4436 73.9111 15.4455 73.9157 15.4475L74.3027 14.5254ZM77.4141 18.4453L78.3947 18.2492L78.3931 18.2419L77.4141 18.4453ZM77.5898 33V34C78.1421 34 78.5898 33.5523 78.5898 33H77.5898ZM74.4258 33H73.4258C73.4258 33.5523 73.8735 34 74.4258 34V33ZM74.0566 18.7617L73.1224 19.1184L73.1246 19.1242L74.0566 18.7617ZM72.7383 17.2324L72.2097 18.0813C72.2159 18.0852 72.2222 18.089 72.2285 18.0927L72.7383 17.2324ZM67.043 17.9355L66.387 17.1807L66.3825 17.1847L67.043 17.9355ZM65.584 33V34C66.1363 34 66.584 33.5523 66.584 33H65.584ZM63.4199 33V14.332H61.4199V33H63.4199ZM62.4199 15.332H65.2676V13.332H62.4199V15.332ZM64.2676 14.332V16.9863H66.2676V14.332H64.2676ZM66.0989 17.5421C67.2736 15.785 68.9332 14.9102 71.209 14.9102V12.9102C68.3051 12.9102 66.0037 14.0861 64.4363 16.4305L66.0989 17.5421ZM71.209 14.9102C72.2098 14.9102 73.1029 15.092 73.9019 15.4415L74.7036 13.6092C73.6276 13.1385 72.4581 12.9102 71.209 12.9102V14.9102ZM73.9157 15.4475C74.7405 15.7937 75.2811 16.2199 75.616 16.6887L77.2434 15.5262C76.6407 14.6824 75.7634 14.054 74.6898 13.6033L73.9157 15.4475ZM75.616 16.6887C75.9932 17.2168 76.2717 17.8631 76.435 18.6488L78.3931 18.2419C78.1814 17.2228 77.8037 16.3106 77.2434 15.5262L75.616 16.6887ZM76.4335 18.6414C76.5291 19.1196 76.5898 20.055 76.5898 21.5215H78.5898C78.5898 20.0582 78.5334 18.9429 78.3946 18.2492L76.4335 18.6414ZM76.5898 21.5215V33H78.5898V21.5215H76.5898ZM77.5898 32H74.4258V34H77.5898V32ZM75.4258 33V21.6445H73.4258V33H75.4258ZM75.4258 21.6445C75.4258 20.3224 75.3038 19.2097 74.9886 18.3993L73.1246 19.1242C73.3017 19.5794 73.4258 20.3885 73.4258 21.6445H75.4258ZM74.9909 18.405C74.6587 17.535 74.0614 16.8541 73.2481 16.3721L72.2285 18.0927C72.6808 18.3608 72.9624 18.6994 73.1224 19.1184L74.9909 18.405ZM73.2668 16.3835C72.464 15.8837 71.5424 15.6523 70.541 15.6523V17.6523C71.2271 17.6523 71.7703 17.8077 72.2097 18.0813L73.2668 16.3835ZM70.541 15.6523C68.9611 15.6523 67.5599 16.1615 66.387 17.1807L67.6989 18.6903C68.4948 17.9987 69.4256 17.6523 70.541 17.6523V15.6523ZM66.3825 17.1847C65.0693 18.3397 64.584 20.3503 64.584 22.8047H66.584C66.584 20.4778 67.0713 19.2424 67.7034 18.6864L66.3825 17.1847ZM64.584 22.8047V33H66.584V22.8047H64.584ZM65.584 32H62.4199V34H65.584V32ZM94.5703 33H93.5703C93.5703 33.5523 94.018 34 94.5703 34V33ZM94.5703 30.6445H95.5703C95.5703 30.2003 95.2773 29.8093 94.8509 29.6847C94.4245 29.5601 93.967 29.7316 93.7278 30.1059L94.5703 30.6445ZM85.2363 32.1914L84.6853 33.0259L84.6889 33.0282L85.2363 32.1914ZM82.3359 28.7637L81.4275 29.1818L81.4316 29.1905L82.3359 28.7637ZM82.248 18.6211L83.173 19.0011L83.174 18.9986L82.248 18.6211ZM92.2148 14.6309L91.7351 15.5084L91.7443 15.5132L92.2148 14.6309ZM94.3594 16.4766L93.549 17.0625C93.8031 17.4139 94.2547 17.5615 94.6673 17.428C95.0799 17.2944 95.3594 16.9102 95.3594 16.4766H94.3594ZM94.3594 7.23047V6.23047C93.8071 6.23047 93.3594 6.67818 93.3594 7.23047H94.3594ZM97.5059 7.23047H98.5059C98.5059 6.67818 98.0581 6.23047 97.5059 6.23047V7.23047ZM97.5059 33V34C98.0581 34 98.5059 33.5523 98.5059 33H97.5059ZM93.1641 29.1328L92.4043 28.4827L92.4037 28.4833L93.1641 29.1328ZM85.9746 18.252L85.2038 17.6149L85.1999 17.6196L85.9746 18.252ZM95.5703 33V30.6445H93.5703V33H95.5703ZM93.7278 30.1059C92.7377 31.6547 91.3239 32.4219 89.3496 32.4219V34.4219C91.9691 34.4219 94.0357 33.3375 95.4129 31.1831L93.7278 30.1059ZM89.3496 32.4219C88.0572 32.4219 86.8761 32.0692 85.7838 31.3546L84.6889 33.0282C86.1043 33.9542 87.6655 34.4219 89.3496 34.4219V32.4219ZM85.7874 31.3569C84.7114 30.6464 83.8606 29.6511 83.2403 28.3368L81.4316 29.1905C82.1941 30.8059 83.2768 32.0958 84.6853 33.0259L85.7874 31.3569ZM83.2443 28.3455C82.6347 27.0211 82.3164 25.4744 82.3164 23.6836H80.3164C80.3164 25.7131 80.6778 27.5531 81.4276 29.1818L83.2443 28.3455ZM82.3164 23.6836C82.3164 21.9325 82.6079 20.3766 83.173 19.0011L81.3231 18.2411C80.646 19.8891 80.3164 21.7081 80.3164 23.6836H82.3164ZM83.174 18.9986C83.727 17.6422 84.5357 16.6464 85.5885 15.9611L84.4974 14.285C83.0659 15.2168 82.0112 16.5531 81.322 18.2436L83.174 18.9986ZM85.5885 15.9611C86.6624 15.2621 87.8602 14.9102 89.209 14.9102V12.9102C87.4874 12.9102 85.908 13.3668 84.4974 14.285L85.5885 15.9611ZM89.209 14.9102C90.1873 14.9102 91.0207 15.1177 91.7352 15.5083L92.6945 13.7534C91.6511 13.183 90.4806 12.9102 89.209 12.9102V14.9102ZM91.7443 15.5132C92.497 15.9147 93.0928 16.4315 93.549 17.0625L95.1697 15.8906C94.5244 14.9982 93.6905 14.2845 92.6854 13.7485L91.7443 15.5132ZM95.3594 16.4766V7.23047H93.3594V16.4766H95.3594ZM94.3594 8.23047H97.5059V6.23047H94.3594V8.23047ZM96.5059 7.23047V33H98.5059V7.23047H96.5059ZM97.5059 32H94.5703V34H97.5059V32ZM83.5684 23.6836C83.5684 26.1896 84.0928 28.2535 85.3187 29.6932L86.8415 28.3966C86.0517 27.4691 85.5684 25.9588 85.5684 23.6836H83.5684ZM85.3187 29.6932C86.4881 31.0666 87.9431 31.8203 89.6484 31.8203V29.8203C88.6116 29.8203 87.6877 29.3905 86.8415 28.3966L85.3187 29.6932ZM89.6484 31.8203C91.3463 31.8203 92.7886 31.112 93.9244 29.7823L92.4037 28.4833C91.6176 29.4036 90.7162 29.8203 89.6484 29.8203V31.8203ZM93.9239 29.783C95.1171 28.3884 95.623 26.3808 95.623 23.9473H93.623C93.623 26.1544 93.1563 27.6037 92.4043 28.4827L93.9239 29.783ZM95.623 23.9473C95.623 21.3 95.1195 19.145 93.9184 17.6866L92.3746 18.958C93.1422 19.8901 93.623 21.4852 93.623 23.9473H95.623ZM93.9184 17.6866C92.7602 16.2802 91.2725 15.5293 89.5078 15.5293V17.5293C90.6259 17.5293 91.564 17.9737 92.3746 18.958L93.9184 17.6866ZM89.5078 15.5293C87.7836 15.5293 86.33 16.2523 85.2038 17.6149L86.7454 18.889C87.5176 17.9548 88.4195 17.5293 89.5078 17.5293V15.5293ZM85.1999 17.6196C84.0471 19.0318 83.5684 21.122 83.5684 23.6836H85.5684C85.5684 21.2999 86.0271 19.769 86.7493 18.8843L85.1999 17.6196Z" fill="black"/>
</svg>
